<?xml version="1.0" encoding="UTF-8" standalone="no"?>
<svg xmlns="http://www.w3.org/2000/svg" viewBox="0 0 200 200">
  <rect width="200" height="200" fill="#1a2530"/>
  <path d="M100 40 C 60 40, 40 60, 40 100 C 40 140, 60 160, 100 160 C 140 160, 160 140, 160 100 C 160 60, 140 40, 100 40" 
        stroke="#2ecc71" stroke-width="12" fill="none" stroke-linecap="round"/>
  <path d="M100 60 C 70 60, 60 70, 60 100 C 60 130, 70 140, 100 140 C 130 140, 140 130, 140 100 C 140 70, 130 60, 100 60" 
        stroke="#2ecc71" stroke-width="12" fill="none" stroke-linecap="round"/>
  <path d="M100 80 C 80 80, 80 80, 80 100 C 80 120, 80 120, 100 120 C 120 120, 120 120, 120 100 C 120 80, 120 80, 100 80" 
        stroke="#2ecc71" stroke-width="12" fill="none" stroke-linecap="round"/>
</svg>
